<svg height='100px' width='100px'  fill="#000000" xmlns:x="http://ns.adobe.com/Extensibility/1.0/" xmlns:i="http://ns.adobe.com/AdobeIllustrator/10.0/" xmlns:graph="http://ns.adobe.com/Graphs/1.0/" xmlns="http://www.w3.org/2000/svg" xmlns:xlink="http://www.w3.org/1999/xlink" version="1.1" x="0px" y="0px" viewBox="0 0 100 100" style="enable-background:new 0 0 100 100;" xml:space="preserve"><g><g i:extraneous="self"><g><path d="M5273.1,2400.1v-2c0-2.8-5-4-9.7-4s-9.7,1.3-9.7,4v2c0,1.8,0.7,3.6,2,4.9l5,4.9c0.3,0.3,0.4,0.6,0.4,1v6.4     c0,0.4,0.2,0.7,0.6,0.8l2.9,0.9c0.5,0.1,1-0.2,1-0.8v-7.2c0-0.4,0.2-0.7,0.4-1l5.1-5C5272.4,2403.7,5273.1,2401.9,5273.1,2400.1z      M5263.4,2400c-4.8,0-7.4-1.3-7.5-1.8v0c0.1-0.5,2.7-1.8,7.5-1.8c4.8,0,7.3,1.3,7.5,1.8C5270.7,2398.7,5268.2,2400,5263.4,2400z"></path><path d="M5268.4,2410.3c-0.6,0-1,0.4-1,1c0,0.6,0.4,1,1,1h4.3c0.6,0,1-0.4,1-1c0-0.6-0.4-1-1-1H5268.4z"></path><path d="M5272.7,2413.7h-4.3c-0.6,0-1,0.4-1,1c0,0.6,0.4,1,1,1h4.3c0.6,0,1-0.4,1-1C5273.7,2414.1,5273.3,2413.7,5272.7,2413.7z"></path><path d="M5272.7,2417h-4.3c-0.6,0-1,0.4-1,1c0,0.6,0.4,1,1,1h4.3c0.6,0,1-0.4,1-1C5273.7,2417.5,5273.3,2417,5272.7,2417z"></path></g><g><path d="M44.4,41c0.6,0.7,1.5,1.1,2.4,1.1c0.9,0,1.8-0.4,2.4-1.1l13.5-14.5c1.2-1.3,1.2-3.4-0.2-4.7c-1.3-1.2-3.4-1.2-4.7,0.2     l-11,11.9l-4.7-5c-1.2-1.3-3.4-1.4-4.7-0.2c-1.3,1.2-1.4,3.4-0.2,4.7L44.4,41z"></path><path d="M32.5,59.7h35.1c1.8,0,3.3-1.5,3.3-3.3S69.4,53,67.5,53H32.5c-1.8,0-3.3,1.5-3.3,3.3S30.6,59.7,32.5,59.7z"></path><path d="M32.5,78.1h35.1c1.8,0,3.3-1.5,3.3-3.3c0-1.8-1.5-3.3-3.3-3.3H32.5c-1.8,0-3.3,1.5-3.3,3.3     C29.1,76.6,30.6,78.1,32.5,78.1z"></path><path d="M85.9,2.5H14.1c-1.8,0-3.3,1.5-3.3,3.3v88.4c0,1.8,1.5,3.3,3.3,3.3h71.8c1.8,0,3.3-1.5,3.3-3.3V5.8     C89.2,4,87.7,2.5,85.9,2.5z M82.6,90.9H17.4V9.1h65.1V90.9z"></path></g></g></g></svg>